STARTFONT 2.3
FONT -FontForge-Fontdiner Swanky-Book-R-Normal--16-160-72-72-P-101-ISO10646-1
SIZE 16 72 72  2
FONTBOUNDINGBOX 23 25 -4 -8
COMMENT "Generated by fontforge, http://fontforge.sourceforge.net"
COMMENT "Copyright (c) 2010 by Font Diner, Inc. All rights reserved."
STARTPROPERTIES 40
FOUNDRY "FontForge"
FAMILY_NAME "Fontdiner Swanky"
WEIGHT_NAME "Book"
SLANT "R"
SETWIDTH_NAME "Normal"
ADD_STYLE_NAME ""
PIXEL_SIZE 16
POINT_SIZE 160
RESOLUTION_X 72
RESOLUTION_Y 72
SPACING "P"
AVERAGE_WIDTH 101
CHARSET_REGISTRY "ISO10646"
CHARSET_ENCODING "1"
FONTNAME_REGISTRY ""
CHARSET_COLLECTIONS "ISO10646-1"
BITS_PER_PIXEL 2
FONT_NAME "FontdinerSwanky-Regular"
FACE_NAME "Fontdiner Swanky Regular"
COPYRIGHT "Copyright (c) 2010 by Font Diner, Inc. All rights reserved."
FONT_VERSION "1.001"
FONT_ASCENT 13
FONT_DESCENT 3
UNDERLINE_POSITION -2
UNDERLINE_THICKNESS 1
X_HEIGHT 8
CAP_HEIGHT 9
RAW_ASCENT 799
RAW_DESCENT 200
NORM_SPACE 5
RELATIVE_WEIGHT 40
RELATIVE_SETWIDTH 50
SUPERSCRIPT_X 0
SUPERSCRIPT_Y 7
SUPERSCRIPT_SIZE 10
SUBSCRIPT_X 0
SUBSCRIPT_Y 2
SUBSCRIPT_SIZE 10
AVG_LOWERCASE_WIDTH 100
AVG_UPPERCASE_WIDTH 125
ENDPROPERTIES
CHARS 231
STARTCHAR space
ENCODING 32
SWIDTH 320 0
DWIDTH 5 0
BBX 1 1 0 0
BITMAP
00
ENDCHAR
STARTCHAR exclam
ENCODING 33
SWIDTH 305 0
DWIDTH 5 0
BBX 5 14 0 0
BITMAP
1540
1F80
2F80
2F40
2F40
2F00
2E00
2E00
2D00
2D00
2C00
1000
BC00
BC00
ENDCHAR
STARTCHAR quotedbl
ENCODING 34
SWIDTH 369 0
DWIDTH 6 0
BBX 6 5 0 6
BITMAP
6590
BAE0
B6E0
B6D0
6590
ENDCHAR
STARTCHAR numbersign
ENCODING 35
SWIDTH 702 0
DWIDTH 11 0
BBX 11 11 0 0
BITMAP
068280
078380
7FEBE8
BFFFFC
1B4780
0B4780
5B9BA4
FFFFF8
5B5B94
0B0B40
050600
ENDCHAR
STARTCHAR dollar
ENCODING 36
SWIDTH 545 0
DWIDTH 9 0
BBX 9 14 0 -2
BITMAP
028000
03C000
07D100
3EFA00
B41F00
BD0300
7FE500
1FFE00
51BF40
B40F80
BE6F40
9BF900
02D000
02D000
ENDCHAR
STARTCHAR percent
ENCODING 37
SWIDTH 657 0
DWIDTH 11 0
BBX 11 14 0 -1
BITMAP
000100
1A07C0
BB8B80
B2CF40
BB9E00
193D00
007C00
00B400
00F000
01E7F4
03CF38
078F38
0B47F4
060000
ENDCHAR
STARTCHAR ampersand
ENCODING 38
SWIDTH 668 0
DWIDTH 11 0
BBX 13 14 0 -2
BITMAP
06F40000
1E2D0000
2D1E0000
1F1D0000
0FB80000
07E04000
0FF48000
3DBDA000
7C3FE400
7D1FC540
7FAFFD00
1BE7E000
00074000
00040000
ENDCHAR
STARTCHAR quotesingle
ENCODING 39
SWIDTH 177 0
DWIDTH 3 0
BBX 3 5 0 6
BITMAP
A4
B8
B4
B4
64
ENDCHAR
STARTCHAR parenleft
ENCODING 40
SWIDTH 384 0
DWIDTH 6 0
BBX 6 16 0 -2
BITMAP
0010
0190
0780
0F00
2E00
3D00
3D00
7D00
7D00
3D00
3D00
2E00
1F00
0B80
03C0
00A0
ENDCHAR
STARTCHAR parenright
ENCODING 41
SWIDTH 375 0
DWIDTH 6 0
BBX 6 16 0 -2
BITMAP
4000
7400
2D00
0F40
0B80
07C0
03D0
03D0
03D0
03D0
07C0
0BC0
0F80
1F00
3D00
A000
ENDCHAR
STARTCHAR asterisk
ENCODING 42
SWIDTH 640 0
DWIDTH 10 0
BBX 10 10 0 0
BITMAP
1B0D00
0F5F40
07AE00
A6FD50
BFFFF0
BFFEB0
03FD00
0B6F40
1F1E40
050400
ENDCHAR
STARTCHAR plus
ENCODING 43
SWIDTH 607 0
DWIDTH 10 0
BBX 10 10 0 0
BITMAP
01F000
01F000
01F000
AAF950
BFFFD0
AAFA90
01F000
01F000
01E000
005000
ENDCHAR
STARTCHAR comma
ENCODING 44
SWIDTH 226 0
DWIDTH 4 0
BBX 4 4 0 -3
BITMAP
7C
BD
2C
24
ENDCHAR
STARTCHAR hyphen
ENCODING 45
SWIDTH 549 0
DWIDTH 9 0
BBX 7 3 1 4
BITMAP
FAA4
FFF8
EAA4
ENDCHAR
STARTCHAR period
ENCODING 46
SWIDTH 226 0
DWIDTH 4 0
BBX 4 4 0 -2
BITMAP
10
BD
BD
14
ENDCHAR
STARTCHAR slash
ENCODING 47
SWIDTH 600 0
DWIDTH 10 0
BBX 11 15 -1 -1
BITMAP
0000A0
0001FC
0002F4
0007E0
000FD0
002F80
003F00
00BD00
01F800
03F000
07D000
0F8000
2F4000
7E0000
2C0000
ENDCHAR
STARTCHAR zero
ENCODING 48
SWIDTH 740 0
DWIDTH 12 0
BBX 12 10 0 0
BITMAP
06FF80
1FEBF4
3E00FC
BD007D
BC007D
BC007D
7D00BD
3E01F8
1FEBE0
02BE40
ENDCHAR
STARTCHAR one
ENCODING 49
SWIDTH 503 0
DWIDTH 8 0
BBX 10 13 -1 -1
BITMAP
001400
5BFC00
16FC00
00F800
00F800
00F800
00F800
00B800
00B800
00B800
00B800
06FE40
155550
ENDCHAR
STARTCHAR two
ENCODING 50
SWIDTH 638 0
DWIDTH 10 0
BBX 10 13 0 -1
BITMAP
505400
77FF40
3F5BD0
3C02E0
3402E0
2007D0
102F80
02F910
0BD050
3E00D0
BEAAD0
FFFFD0
555580
ENDCHAR
STARTCHAR three
ENCODING 51
SWIDTH 620 0
DWIDTH 10 0
BBX 10 13 0 -1
BITMAP
404000
97FE00
7E6F80
7807C0
2007D0
100BC0
02FF40
01AFC0
200BE0
7007E0
BD1FD0
AFFF40
81A400
ENDCHAR
STARTCHAR four
ENCODING 52
SWIDTH 606 0
DWIDTH 10 0
BBX 11 13 -1 -1
BITMAP
000140
000740
000F40
002F40
00BF40
02EF40
079F54
1E0F64
3FFFF4
555F74
000F14
000F40
01BFE0
ENDCHAR
STARTCHAR five
ENCODING 53
SWIDTH 610 0
DWIDTH 10 0
BBX 10 13 0 -1
BITMAP
001680
AFFFC0
BEA680
B80080
795440
7FFE00
356F80
000BD0
000BD0
700FC0
7EBF80
ABFE00
415400
ENDCHAR
STARTCHAR six
ENCODING 54
SWIDTH 619 0
DWIDTH 10 0
BBX 10 14 0 -1
BITMAP
000040
000180
07FA80
1FFF80
3F06C0
7D5080
BFFF40
FE4BD0
FC03E0
F802F0
B802E0
BC03D0
3F5B80
0BFE00
ENDCHAR
STARTCHAR seven
ENCODING 55
SWIDTH 598 0
DWIDTH 10 0
BBX 11 13 0 -1
BITMAP
555000
BFFFF4
79AFF0
340BD0
200FC0
101F80
001F40
002E00
003D00
007C00
007800
06FD00
1AAA80
ENDCHAR
STARTCHAR eight
ENCODING 56
SWIDTH 642 0
DWIDTH 10 0
BBX 11 14 0 -2
BITMAP
005000
0BFE00
2F4BC0
3E03E0
7D03E0
3E07D0
1FAF80
3FEFD0
BE07F0
FC02F4
FD02F4
7E0BE0
1FFF80
015400
ENDCHAR
STARTCHAR nine
ENCODING 57
SWIDTH 610 0
DWIDTH 10 0
BBX 10 14 0 -2
BITMAP
015000
1FFE00
7E0B80
BC07D0
F803E0
FC07E0
BD0BE0
3FFFE0
06EBD0
200BC0
3D6F40
2FFE00
25A400
100000
ENDCHAR
STARTCHAR colon
ENCODING 58
SWIDTH 223 0
DWIDTH 4 0
BBX 4 8 0 -2
BITMAP
10
BC
BC
10
10
BC
FD
14
ENDCHAR
STARTCHAR semicolon
ENCODING 59
SWIDTH 228 0
DWIDTH 4 0
BBX 4 9 0 -3
BITMAP
14
BD
BD
10
00
BC
FD
6C
34
ENDCHAR
STARTCHAR less
ENCODING 60
SWIDTH 563 0
DWIDTH 9 0
BBX 10 11 0 0
BITMAP
000040
0006C0
002FD0
01FF90
1FF900
BFD000
2F8000
06E000
007D00
000B40
000180
ENDCHAR
STARTCHAR equal
ENCODING 61
SWIDTH 531 0
DWIDTH 9 0
BBX 9 7 0 1
BITMAP
555000
FFFF40
FFFF40
540000
BFFF40
FFFF40
556A40
ENDCHAR
STARTCHAR greater
ENCODING 62
SWIDTH 576 0
DWIDTH 9 0
BBX 9 10 0 0
BITMAP
B80000
BF4000
BFE400
0BFE00
00BFC0
007F40
01F800
0B9000
2D0000
600000
ENDCHAR
STARTCHAR question
ENCODING 63
SWIDTH 592 0
DWIDTH 9 0
BBX 10 15 0 -1
BITMAP
100000
7A9400
7ABE00
900FC0
4007D0
0007D0
000BD0
0ABF80
0FE900
0F4000
0F0000
000000
7D0000
BE0000
140000
ENDCHAR
STARTCHAR at
ENCODING 64
SWIDTH 792 0
DWIDTH 13 0
BBX 13 12 0 -1
BITMAP
006A9000
0BEAB800
2E151E00
78BBCB40
B5E1D3C0
F091E3C0
F0BBD3C0
F5D1D3C0
B9FBD780
3D16EA00
0B90A800
00690000
ENDCHAR
STARTCHAR A
ENCODING 65
SWIDTH 788 0
DWIDTH 13 0
BBX 18 15 -2 -4
BITMAP
01AA400000
002FE00000
0003F00000
0007F80000
000AFC0000
001C7E0000
00383F0000
007FFF4000
00EAAFC000
01C00BD000
1BC007F000
AFF402F800
000002FF90
000007E400
0000040000
ENDCHAR
STARTCHAR B
ENCODING 66
SWIDTH 774 0
DWIDTH 12 0
BBX 15 13 -2 -2
BITMAP
6AA95400
0BFFFF80
02F817F0
01F401F4
01F402F4
01FAAFD0
00FFFF40
00F96FC0
00F807E0
00B807F0
00BD6FD0
02FFF900
1A950000
ENDCHAR
STARTCHAR C
ENCODING 67
SWIDTH 766 0
DWIDTH 12 0
BBX 12 13 0 -1
BITMAP
000001
01BF92
0BFAFE
2F802E
7F000D
BE0005
BD0000
BD0000
7E0004
3F0009
1FD01D
07FAFA
00AF91
ENDCHAR
STARTCHAR D
ENCODING 68
SWIDTH 833 0
DWIDTH 13 0
BBX 15 12 -1 -1
BITMAP
AAAAA400
1BFFFF40
01F80BD0
01F803F0
00F802F4
00F801F4
00F801F4
00F802F0
00F403E0
00F95FC0
07FFFE00
15550000
ENDCHAR
STARTCHAR E
ENCODING 69
SWIDTH 781 0
DWIDTH 13 0
BBX 13 13 -1 -1
BITMAP
00005540
6BFFFF80
07F90380
02F41280
02F45080
01F4D040
01FAD000
01FFD040
01F5D140
01F45240
01F00340
1BFFFF40
55555500
ENDCHAR
STARTCHAR F
ENCODING 70
SWIDTH 731 0
DWIDTH 12 0
BBX 13 13 -1 -1
BITMAP
00005500
6AFFFF40
07F50B40
02F40340
02F44240
02F0C140
02FAC000
02FFC000
02F1C000
01F08000
01F04000
02F40000
2FFE4000
ENDCHAR
STARTCHAR G
ENCODING 71
SWIDTH 828 0
DWIDTH 13 0
BBX 14 13 0 -1
BITMAP
00000200
01BF9A00
0BFAFE00
2F802E00
7F000A00
BE000100
BD055550
BE01BF80
7E002E00
3F402F00
1FD07F00
07FFF700
006A4000
ENDCHAR
STARTCHAR H
ENCODING 72
SWIDTH 797 0
DWIDTH 13 0
BBX 15 14 -1 -2
BITMAP
00015500
0001BFE0
BFF92F40
0BE02F00
07D02F00
07D02F00
07D02F00
07FFFF00
07E56F00
07D01F00
07D02F00
07D1BFE4
1BE40000
55550000
ENDCHAR
STARTCHAR I
ENCODING 73
SWIDTH 445 0
DWIDTH 7 0
BBX 9 13 -1 -2
BITMAP
6FFF40
07F400
02F400
02F000
02F000
02F000
01F000
01F000
01F000
01F000
01F000
07F900
155540
ENDCHAR
STARTCHAR J
ENCODING 74
SWIDTH 718 0
DWIDTH 12 0
BBX 14 14 -1 -2
BITMAP
00000590
016BFE00
0056F800
0000F800
0000F800
0000BC00
0000BC00
00007D00
00007D00
BFD07C00
1F00BC00
0B40F800
07D6F000
01BF8000
ENDCHAR
STARTCHAR K
ENCODING 75
SWIDTH 934 0
DWIDTH 15 0
BBX 19 14 -1 -2
BITMAP
56AA400000
1BF91AAA40
02F403E400
02F41F4000
02F5B80000
02FBF00000
01FDF80000
01F07D0000
01F01F4000
01F00BD000
01F403F000
1FFF91F800
000007FF90
0000155554
ENDCHAR
STARTCHAR L
ENCODING 76
SWIDTH 712 0
DWIDTH 11 0
BBX 13 13 -1 0
BITMAP
6AAA9000
1BFE0000
02F40000
01F40000
01F40000
01F40000
01F40040
01F40140
01F40240
01F40740
00F40B40
06FFFF40
2AAA9500
ENDCHAR
STARTCHAR M
ENCODING 77
SWIDTH 1033 0
DWIDTH 17 0
BBX 18 13 -1 -1
BITMAP
5550006A50
1FFC00BF80
02FD01FE00
02FE02FD00
02FF47FD00
01EF8EBD00
01DBEDBD00
01D7FCBD00
01D2F4BD00
00D0F0BD00
00D050BD00
06F906FF90
5555400000
ENDCHAR
STARTCHAR N
ENCODING 78
SWIDTH 840 0
DWIDTH 13 0
BBX 16 13 -1 -1
BITMAP
5551AAA9
1FF82FE4
02FE0380
02FF4280
02EFD280
02CBF280
02C3FA80
02C0FF80
02C07F80
02C01F80
07E40780
6FFF9280
00000040
ENDCHAR
STARTCHAR O
ENCODING 79
SWIDTH 808 0
DWIDTH 13 0
BBX 13 11 0 -1
BITMAP
01AE9000
0BFAF800
3F807E00
7E002F40
BD001F80
BD001F80
7E002F40
3F007F00
1FD6FD00
02FFE000
00040000
ENDCHAR
STARTCHAR P
ENCODING 80
SWIDTH 746 0
DWIDTH 12 0
BBX 13 12 -1 -1
BITMAP
54000000
2FFFE900
03F56F40
02F007C0
02F00B80
02FAFE00
02FA5000
02F40000
02F40000
02F40000
1BFE4000
55555000
ENDCHAR
STARTCHAR Q
ENCODING 81
SWIDTH 789 0
DWIDTH 13 0
BBX 14 16 0 -5
BITMAP
00150000
06FFE000
1FD5FC00
3F007E00
7D002F00
7D002F40
7D002F00
3E003E00
2F80BD00
0BFFF400
006FC000
0007D000
0003FA50
0007FE40
001F9000
00500000
ENDCHAR
STARTCHAR R
ENCODING 82
SWIDTH 826 0
DWIDTH 13 0
BBX 18 15 -1 -4
BITMAP
5550000000
1FFFF90000
02F56F8000
02F003D000
02F00B8000
02FAFD0000
02F9B80000
01F47D0000
01F42F0000
02F41F8000
1BFE4BD000
555553FA90
000002FD00
00000B9000
0000140000
ENDCHAR
STARTCHAR S
ENCODING 83
SWIDTH 661 0
DWIDTH 11 0
BBX 11 12 0 -1
BITMAP
015414
2FFFB0
BD06F0
BC0070
BF9410
3FFF40
06FFE0
101BF4
2002F4
3D02F0
3BFF80
505400
ENDCHAR
STARTCHAR T
ENCODING 84
SWIDTH 754 0
DWIDTH 12 0
BBX 12 12 0 -1
BITMAP
6AAAA9
7AFEBD
74BD1D
307D0C
207D08
007D04
007D00
007D00
007C00
00BD00
07FF90
055550
ENDCHAR
STARTCHAR U
ENCODING 85
SWIDTH 725 0
DWIDTH 12 0
BBX 14 12 -1 -1
BITMAP
40005550
2FF42F40
0BD00E00
0BD00E00
0BD00E00
0BD00E00
0BD00E00
0BD00D00
0BE01D00
03F57C00
01FFE000
00154000
ENDCHAR
STARTCHAR V
ENCODING 86
SWIDTH 786 0
DWIDTH 13 0
BBX 16 13 -2 -1
BITMAP
00014000
01AD0500
6FF406FA
02F801E0
00FC0280
00BD0740
003E0A00
002F5D00
000FA800
000BF400
0003E000
0002D000
00008000
ENDCHAR
STARTCHAR W
ENCODING 87
SWIDTH 1026 0
DWIDTH 16 0
BBX 20 13 -2 -2
BITMAP
0015401000
6FFD041BE9
02F40D01E4
01F81F01C0
00FC2F4280
00BD7FC740
003EBBEB00
002FF3FD00
001FD2FC00
000FC0F800
000780B400
0003003000
0001001000
ENDCHAR
STARTCHAR X
ENCODING 88
SWIDTH 860 0
DWIDTH 14 0
BBX 16 11 -1 -1
BITMAP
15AA4014
06F82FE4
00BD1E00
003FB800
001FE000
000FE000
003EF800
01F4FD00
0BC07F40
AFE42FE4
0001AAA9
ENDCHAR
STARTCHAR Y
ENCODING 89
SWIDTH 848 0
DWIDTH 14 0
BBX 16 12 -2 -1
BITMAP
01550000
6FFD0555
01FD02F9
003F01D0
001F8740
0007ED00
0001F400
0000F400
0000F400
0001F400
0001F800
001BFF90
ENDCHAR
STARTCHAR Z
ENCODING 90
SWIDTH 685 0
DWIDTH 11 0
BBX 11 10 0 0
BITMAP
6AAAA8
7FEFF4
740BE0
302FC0
207F40
01FD08
07F818
0FE038
2FEAB8
6AAAA4
ENDCHAR
STARTCHAR bracketleft
ENCODING 91
SWIDTH 380 0
DWIDTH 6 0
BBX 6 15 1 -2
BITMAP
FFD0
FD00
F800
F800
F800
F800
F400
F400
B400
B400
B400
B400
B400
B900
BF80
ENDCHAR
STARTCHAR backslash
ENCODING 92
SWIDTH 680 0
DWIDTH 11 0
BBX 11 15 0 -1
BITMAP
1C0000
BE0000
7F0000
2F8000
0FD000
07E000
02F400
00FC00
007E00
002F00
001F80
000BD0
0003F0
0001F4
0000A4
ENDCHAR
STARTCHAR bracketright
ENCODING 93
SWIDTH 371 0
DWIDTH 6 0
BBX 7 15 -1 -2
BITMAP
6FF4
06F4
01F4
01F4
01F0
01F0
01F0
01F0
01F0
01F0
00F0
00F0
00F0
02F0
1FE0
ENDCHAR
STARTCHAR asciicircum
ENCODING 94
SWIDTH 671 0
DWIDTH 11 0
BBX 11 10 0 4
BITMAP
006000
00F400
01FC00
03FE00
0BEF40
1FC780
2F42D0
7F00B0
FD0024
140000
ENDCHAR
STARTCHAR underscore
ENCODING 95
SWIDTH 840 0
DWIDTH 13 0
BBX 14 4 0 -2
BITMAP
00005540
FFFFFFD0
FFFFFFD0
AAAAAA90
ENDCHAR
STARTCHAR grave
ENCODING 96
SWIDTH 707 0
DWIDTH 11 0
BBX 3 4 5 9
BITMAP
B0
F4
78
24
ENDCHAR
STARTCHAR a
ENCODING 97
SWIDTH 572 0
DWIDTH 9 0
BBX 10 10 0 -1
BITMAP
06E400
2E6E00
7D0F40
3C0F40
1AAF40
7D6F40
BC1F00
7EBF00
06AF90
001550
ENDCHAR
STARTCHAR b
ENCODING 98
SWIDTH 723 0
DWIDTH 12 0
BBX 14 15 -2 -3
BITMAP
56B80000
1BF80000
01F80000
01F80000
01F40000
00F40000
00F40000
00FAA900
00FEAF80
00F40BD0
00F407D0
00F40BC0
00F56F00
07FFE400
05500000
ENDCHAR
STARTCHAR c
ENCODING 99
SWIDTH 589 0
DWIDTH 9 0
BBX 10 9 0 -1
BITMAP
02B900
1FAF80
3E0BC0
7D0780
7D0000
7D0050
3F01C0
1FEF40
06F900
ENDCHAR
STARTCHAR d
ENCODING 100
SWIDTH 713 0
DWIDTH 11 0
BBX 13 16 0 -3
BITMAP
00155400
0002FD00
0000BC00
0000BC00
0000BC00
0000B800
0050F800
07FEF400
2F96F400
7D00F400
7C00F000
7D00F000
2F41F000
0BFBE000
0056F940
00019400
ENDCHAR
STARTCHAR e
ENCODING 101
SWIDTH 593 0
DWIDTH 10 0
BBX 10 9 0 -1
BITMAP
005000
0BFE00
2F5F80
7D07C0
7EABD0
7EAA90
3D0040
1FAA40
06F900
ENDCHAR
STARTCHAR f
ENCODING 102
SWIDTH 507 0
DWIDTH 8 0
BBX 10 23 -1 -7
BITMAP
000500
007FC0
00F5E0
01E1F0
02E0A0
02E000
02E000
02E000
2FFFC0
16F540
01F400
01F400
00F400
00F800
00B800
00B800
00BC00
007C00
647C00
B87800
B4B400
2FE000
054000
ENDCHAR
STARTCHAR g
ENCODING 103
SWIDTH 606 0
DWIDTH 10 0
BBX 11 18 0 -8
BITMAP
0002E0
000BF4
07FDB0
2E1F40
7C07C0
B803D0
B803D0
7C07C0
2F5F40
1FF800
3F5400
2FFF80
7E5BE0
B801F0
F801F4
B802F0
7E5BD0
06FA00
ENDCHAR
STARTCHAR h
ENCODING 104
SWIDTH 678 0
DWIDTH 11 0
BBX 14 15 -2 -1
BITMAP
01640000
6FF80000
02F80000
01F40000
01F40000
01F40000
01F40000
01F95000
00FFFD00
00F42F40
00F00F40
00F00F40
00F00F00
07FD0F00
00007FD0
ENDCHAR
STARTCHAR i
ENCODING 105
SWIDTH 393 0
DWIDTH 6 0
BBX 7 13 0 0
BITMAP
0640
0FD0
0FC0
0640
5540
6FD0
07C0
07C0
07C0
07C0
0780
0BC0
6FF4
ENDCHAR
STARTCHAR j
ENCODING 106
SWIDTH 385 0
DWIDTH 6 0
BBX 7 18 -1 -6
BITMAP
0640
0FD0
0FC0
0240
15A0
1BF0
02F0
01F0
01F0
01F4
00F4
00F4
00F8
50B8
F4B4
F0F4
7FE0
0540
ENDCHAR
STARTCHAR k
ENCODING 107
SWIDTH 749 0
DWIDTH 12 0
BBX 15 15 -2 -2
BITMAP
5AA80000
06F80000
01F85554
01F87FE4
01F82E00
00F8B400
00FAD000
00FFF000
00F8F400
00F47C00
00B42E00
00F80F40
07FF47E4
00001FA4
00001400
ENDCHAR
STARTCHAR l
ENCODING 108
SWIDTH 369 0
DWIDTH 6 0
BBX 7 16 -1 -2
BITMAP
AA90
1BE0
07E0
07E0
03E0
03D0
03D0
03D0
03D0
03D0
03D0
02D0
02D0
03D0
1FF8
1000
ENDCHAR
STARTCHAR m
ENCODING 109
SWIDTH 990 0
DWIDTH 16 0
BBX 18 8 -1 1
BITMAP
0595405000
BFFFFBFD00
07F5FE6F00
03D07C1F00
03D0780F00
02C0781F00
1BE4786F80
0006FE4550
ENDCHAR
STARTCHAR n
ENCODING 110
SWIDTH 643 0
DWIDTH 10 0
BBX 12 8 -1 1
BITMAP
059140
BFFFF4
07F5F8
03D07C
03D07C
02C078
1BE478
0006FE
ENDCHAR
STARTCHAR o
ENCODING 111
SWIDTH 705 0
DWIDTH 11 0
BBX 11 8 0 0
BITMAP
01A900
1FEBE0
7E01F8
BC00BC
B800BC
BC00BC
2F56F4
06FF80
ENDCHAR
STARTCHAR p
ENCODING 112
SWIDTH 723 0
DWIDTH 12 0
BBX 14 13 -2 -4
BITMAP
56A40000
1BFAA400
01FEBF40
00F40BC0
00F403D0
00F403D0
00F80BC0
00FFBF40
00B9A400
00B80000
00B80000
01FD0000
1AAA8000
ENDCHAR
STARTCHAR q
ENCODING 113
SWIDTH 682 0
DWIDTH 11 0
BBX 13 13 0 -4
BITMAP
0003FE40
0BFBF000
3E57E000
B803E000
B803E000
B803E000
7E47D000
1FFFD000
0053D000
0003D000
0003D000
001FF400
00555500
ENDCHAR
STARTCHAR r
ENCODING 114
SWIDTH 595 0
DWIDTH 10 0
BBX 11 10 -1 0
BITMAP
005050
6BF7F8
17FEFC
02F464
01F000
01F000
01F000
00F000
02FE00
1FAA40
ENDCHAR
STARTCHAR s
ENCODING 115
SWIDTH 533 0
DWIDTH 9 0
BBX 9 10 0 0
BITMAP
014100
2FFA00
781F00
BD0700
7F9100
1FFD00
51BF40
741F40
7E5F40
9AF900
ENDCHAR
STARTCHAR t
ENCODING 116
SWIDTH 422 0
DWIDTH 7 0
BBX 7 16 0 -1
BITMAP
0140
0340
0740
0B40
BF50
FFFC
2F54
2F00
2E00
2E00
2E00
3E04
3D08
2F68
1FF0
0540
ENDCHAR
STARTCHAR u
ENCODING 117
SWIDTH 614 0
DWIDTH 10 0
BBX 12 9 -1 -1
BITMAP
BF8AA4
1F42F4
0F40F4
0F40F0
0F40F0
0F40F0
0BD7E0
02FEF9
001094
ENDCHAR
STARTCHAR v
ENCODING 118
SWIDTH 639 0
DWIDTH 10 0
BBX 14 10 -2 -1
BITMAP
00590000
6FE15500
03E07F90
01F42C00
00F87400
007DB000
002FD000
001FC000
000B4000
00020000
ENDCHAR
STARTCHAR w
ENCODING 119
SWIDTH 805 0
DWIDTH 13 0
BBX 17 9 -2 0
BITMAP
6AA902A940
0BE060B900
02F0F0B000
01F9F5D000
00BEFEC000
007F7F4000
002E2F0000
001D0E0000
0008080000
ENDCHAR
STARTCHAR x
ENCODING 120
SWIDTH 717 0
DWIDTH 11 0
BBX 14 10 -1 -1
BITMAP
15A90000
6BE2AA80
02F4B900
00FED000
003F4000
002F8000
01F7E000
1BE1F400
1555FF90
00065400
ENDCHAR
STARTCHAR y
ENCODING 121
SWIDTH 655 0
DWIDTH 10 0
BBX 11 16 -1 -7
BITMAP
500000
2E4AA4
0FD1FC
0FC0BC
1F80BC
1F40BC
1F80B8
0BFFF8
01A9F8
0000F8
0000F8
0400F8
1F01F4
1F02F0
0F57D0
02FF40
ENDCHAR
STARTCHAR z
ENCODING 122
SWIDTH 549 0
DWIDTH 9 0
BBX 9 10 0 -1
BITMAP
155540
BFFF80
743F00
70BD00
21F800
07E140
0FC240
2F9740
6FFF80
000100
ENDCHAR
STARTCHAR braceleft
ENCODING 123
SWIDTH 708 0
DWIDTH 11 0
BBX 9 15 1 -2
BITMAP
03FF40
03F400
03E000
03E000
03E000
03D000
07D000
7FD000
07D000
02D000
02D000
02D000
02D000
02E400
02FE00
ENDCHAR
STARTCHAR bar
ENCODING 124
SWIDTH 304 0
DWIDTH 5 0
BBX 3 16 1 -2
BITMAP
54
F8
F8
F8
B8
B8
B8
B8
B8
B8
B8
B8
B8
B8
B8
10
ENDCHAR
STARTCHAR braceright
ENCODING 125
SWIDTH 517 0
DWIDTH 8 0
BBX 9 15 0 -2
BITMAP
6FF000
06F000
01F000
01F000
01F000
01F000
01F400
01FF40
01F400
01E000
01E000
01E000
01E000
06E000
2FE000
ENDCHAR
STARTCHAR asciitilde
ENCODING 126
SWIDTH 466 0
DWIDTH 7 0
BBX 8 4 0 3
BITMAP
1501
FFED
EBFD
4054
ENDCHAR
STARTCHAR uni00A0
ENCODING 160
SWIDTH 320 0
DWIDTH 5 0
BBX 1 1 0 0
BITMAP
00
ENDCHAR
STARTCHAR exclamdown
ENCODING 161
SWIDTH 305 0
DWIDTH 5 0
BBX 5 14 0 -5
BITMAP
0A40
0F80
0640
0900
0F00
1F00
2E00
2E00
3E00
3E00
7E00
7E00
BE00
AD00
ENDCHAR
STARTCHAR cent
ENCODING 162
SWIDTH 417 0
DWIDTH 7 0
BBX 7 14 0 -2
BITMAP
0540
0780
0780
1FE0
7874
F078
F000
F000
F404
7E74
1BD0
0780
0780
0640
ENDCHAR
STARTCHAR sterling
ENCODING 163
SWIDTH 658 0
DWIDTH 11 0
BBX 11 12 0 -1
BITMAP
006414
07FFB0
0F82F0
1F40B0
FFA920
FFFD10
079404
FFFE08
5BE918
0B9574
1FFFF4
156AA4
ENDCHAR
STARTCHAR currency
ENCODING 164
SWIDTH 358 0
DWIDTH 6 0
BBX 6 6 0 3
BITMAP
1040
BFD0
7AC0
35C0
7FD0
A590
ENDCHAR
STARTCHAR yen
ENCODING 165
SWIDTH 796 0
DWIDTH 13 0
BBX 15 11 -2 0
BITMAP
01540000
6FE02A54
01F40B90
007D1D00
001F7400
000BD000
007FE800
005BE800
006BFC00
0007D000
006AA940
ENDCHAR
STARTCHAR brokenbar
ENCODING 166
SWIDTH 304 0
DWIDTH 5 0
BBX 3 16 1 -2
BITMAP
54
F8
F8
F8
F8
B8
50
00
00
A4
B8
B8
B8
B8
B8
10
ENDCHAR
STARTCHAR section
ENCODING 167
SWIDTH 646 0
DWIDTH 10 0
BBX 10 18 0 -4
BITMAP
07F440
2E6E80
7C03C0
7D00C0
3F9040
1FF900
0FFF80
3D6FD0
7C07E0
7E02E0
3FEBD0
1FFF40
02FFC0
101FE0
3403E0
3D02E0
3BEF80
516500
ENDCHAR
STARTCHAR dieresis
ENCODING 168
SWIDTH 708 0
DWIDTH 11 0
BBX 5 2 3 13
BITMAP
B2C0
6280
ENDCHAR
STARTCHAR copyright
ENCODING 169
SWIDTH 700 0
DWIDTH 11 0
BBX 11 11 0 0
BITMAP
01AA00
1FABD0
7D64B4
B1DA3C
E3452C
E3402C
B2812C
74FD78
2D01E0
0BFF80
005400
ENDCHAR
STARTCHAR ordfeminine
ENCODING 170
SWIDTH 399 0
DWIDTH 6 0
BBX 7 7 0 6
BITMAP
1A40
B6D0
B1E0
6FE0
F6D0
BBD0
16A4
ENDCHAR
STARTCHAR guillemotleft
ENCODING 171
SWIDTH 424 0
DWIDTH 7 0
BBX 7 8 0 0
BITMAP
0514
0D34
2CB0
B9E0
B6D0
78F0
1D74
0928
ENDCHAR
STARTCHAR logicalnot
ENCODING 172
SWIDTH 541 0
DWIDTH 9 0
BBX 9 8 0 1
BITMAP
400040
800140
BEAB40
BFFF40
A55B40
400700
000700
000B80
ENDCHAR
STARTCHAR sfthyphen
ENCODING 173
SWIDTH 530 0
DWIDTH 8 0
BBX 9 3 0 4
BITMAP
FEAA40
FFFF40
EAAA40
ENDCHAR
STARTCHAR registered
ENCODING 174
SWIDTH 700 0
DWIDTH 11 0
BBX 12 11 0 0
BITMAP
01A900
1FEBD0
7D00B4
B5BB7C
E0B66C
E0702D
F0602C
B4B838
2D01F0
0BFF80
005400
ENDCHAR
STARTCHAR macron
ENCODING 175
SWIDTH 705 0
DWIDTH 11 0
BBX 5 3 4 11
BITMAP
AA40
FF40
5540
ENDCHAR
STARTCHAR degree
ENCODING 176
SWIDTH 364 0
DWIDTH 6 0
BBX 4 5 1 7
BITMAP
14
BE
D7
EE
68
ENDCHAR
STARTCHAR plusminus
ENCODING 177
SWIDTH 607 0
DWIDTH 10 0
BBX 10 10 0 0
BITMAP
01F000
01F000
BFFA90
BFFFD0
6AF540
01F000
01A000
6AA540
7FFFD0
7EAA80
ENDCHAR
STARTCHAR twosuperior
ENCODING 178
SWIDTH 440 0
DWIDTH 7 0
BBX 7 8 0 6
BITMAP
6BE0
7DB8
3078
20B4
17D4
2E18
BEB8
FFF8
ENDCHAR
STARTCHAR threesuperior
ENCODING 179
SWIDTH 442 0
DWIDTH 7 0
BBX 7 9 0 5
BITMAP
4640
7FF4
3478
11B8
0BF4
11B8
74B8
7FF4
4540
ENDCHAR
STARTCHAR acute
ENCODING 180
SWIDTH 694 0
DWIDTH 11 0
BBX 4 4 4 12
BITMAP
14
2D
3C
78
ENDCHAR
STARTCHAR mu
ENCODING 181
SWIDTH 1000 0
DWIDTH 16 0
BBX 12 12 0 -4
BITMAP
6FC6A8
0BC1BC
0B80B8
0B80B8
0780B4
0780B4
07E6F0
07FFF9
078064
078000
078000
078000
ENDCHAR
STARTCHAR paragraph
ENCODING 182
SWIDTH 782 0
DWIDTH 13 0
BBX 14 12 -1 -1
BITMAP
00155690
0BFFFE40
3E5E7800
7C0E3800
2E5E7800
06FFF800
001EB800
001E7400
001E7400
001EB800
006FFF80
05555500
ENDCHAR
STARTCHAR periodcentered
ENCODING 183
SWIDTH 226 0
DWIDTH 4 0
BBX 4 4 0 4
BITMAP
14
BD
BD
14
ENDCHAR
STARTCHAR cedilla
ENCODING 184
SWIDTH 780 0
DWIDTH 12 0
BBX 4 5 4 -3
BITMAP
28
7D
1B
6B
6D
ENDCHAR
STARTCHAR onesuperior
ENCODING 185
SWIDTH 390 0
DWIDTH 6 0
BBX 6 9 0 5
BITMAP
0680
6F80
0780
0780
0780
0780
0780
1BD0
1550
ENDCHAR
STARTCHAR ordmasculine
ENCODING 186
SWIDTH 449 0
DWIDTH 7 0
BBX 9 7 -1 6
BITMAP
004000
1FFD00
3D0F00
780B40
3C0F00
1FFD00
004000
ENDCHAR
STARTCHAR guillemotright
ENCODING 187
SWIDTH 415 0
DWIDTH 7 0
BBX 7 8 0 0
BITMAP
4100
A280
79E0
2DB4
2DB8
38F0
B5D0
9240
ENDCHAR
STARTCHAR onequarter
ENCODING 188
SWIDTH 918 0
DWIDTH 15 0
BBX 14 16 0 -2
BITMAP
06800280
6F8007C0
07800F40
07802E00
07807D00
0780B800
0781F040
1BD3D180
155B8780
000F0F80
002D3F90
0078B7B0
00B6FFF0
01E003A0
03C01BD0
07405550
ENDCHAR
STARTCHAR onehalf
ENCODING 189
SWIDTH 1007 0
DWIDTH 16 0
BBX 16 17 0 -3
BITMAP
06800280
6F8007C0
07800F40
07802E00
07807D00
0780B800
0781F000
1BD3D000
155B9AF4
000F0FAE
002D0D0F
0078082E
00B405B9
01E00B96
03C02FAA
07402FFE
00000004
ENDCHAR
STARTCHAR threequarters
ENCODING 190
SWIDTH 936 0
DWIDTH 15 0
BBX 15 16 0 -2
BITMAP
46400280
7FF403D0
34780B80
11B81F00
0BF43D00
11B87800
74B8F440
7FF6E1C0
4547C3C0
000B4BC0
001E2FD4
003C7BE4
00B5FFF4
01E002D4
02D00BD0
02801554
ENDCHAR
STARTCHAR questiondown
ENCODING 191
SWIDTH 568 0
DWIDTH 9 0
BBX 9 14 0 -5
BITMAP
001F80
001F80
000500
002900
003D00
06BD00
3FFC00
BD0000
F80000
F40000
BC0080
3F9780
06FB40
000140
ENDCHAR
STARTCHAR Agrave
ENCODING 192
SWIDTH 788 0
DWIDTH 13 0
BBX 18 20 -2 -4
BITMAP
000B400000
000B800000
0003C00000
0001400000
0000000000
01AA400000
002FE00000
0003F00000
0007F80000
000AFC0000
001C7E0000
00383F0000
007FFF4000
00EAAFC000
01C00BD000
1BC007F000
AFF402F800
000002FF90
000007E400
0000040000
ENDCHAR
STARTCHAR Aacute
ENCODING 193
SWIDTH 788 0
DWIDTH 13 0
BBX 18 20 -2 -4
BITMAP
0000400000
0001F00000
0002E00000
0002C00000
0000000000
01AA400000
002FE00000
0003F00000
0007F80000
000AFC0000
001C7E0000
00383F0000
007FFF4000
00EAAFC000
01C00BD000
1BC007F000
AFF402F800
000002FF90
000007E400
0000040000
ENDCHAR
STARTCHAR Acircumflex
ENCODING 194
SWIDTH 788 0
DWIDTH 13 0
BBX 18 20 -2 -4
BITMAP
0000800000
0003E00000
000BF40000
001D1C0000
0000000000
01AA400000
002FE00000
0003F00000
0007F80000
000AFC0000
001C7E0000
00383F0000
007FFF4000
00EAAFC000
01C00BD000
1BC007F000
AFF402F800
000002FF90
000007E400
0000040000
ENDCHAR
STARTCHAR Atilde
ENCODING 195
SWIDTH 788 0
DWIDTH 13 0
BBX 18 18 -2 -4
BITMAP
000B980000
000FFC0000
0004540000
01AA400000
002FE00000
0003F00000
0007F80000
000AFC0000
001C7E0000
00383F0000
007FFF4000
00EAAFC000
01C00BD000
1BC007F000
AFF402F800
000002FF90
000007E400
0000040000
ENDCHAR
STARTCHAR Adieresis
ENCODING 196
SWIDTH 788 0
DWIDTH 13 0
BBX 18 18 -2 -4
BITMAP
000E380000
000A240000
0000000000
01AA400000
002FE00000
0003F00000
0007F80000
000AFC0000
001C7E0000
00383F0000
007FFF4000
00EAAFC000
01C00BD000
1BC007F000
AFF402F800
000002FF90
000007E400
0000040000
ENDCHAR
STARTCHAR Aring
ENCODING 197
SWIDTH 788 0
DWIDTH 13 0
BBX 18 18 -2 -4
BITMAP
0001800000
0003B00000
0007700000
01ABD00000
002FE00000
0003F00000
0007F80000
000AFC0000
001C7D0000
00383F0000
007FFF4000
00EAAFC000
01C00BD000
1BC007F000
AFF402F800
000002FF90
000007E400
0000040000
ENDCHAR
STARTCHAR AE
ENCODING 198
SWIDTH 1019 0
DWIDTH 16 0
BBX 20 13 -4 -1
BITMAP
0000015559
001FFFFFFE
0002FFE40E
0000BBE04A
0001E7E146
0002C7E241
000747EB40
000E07FF41
002FFFD345
007A9BD149
00A003D00D
0BE06FFFFD
6AB9555554
ENDCHAR
STARTCHAR Ccedilla
ENCODING 199
SWIDTH 766 0
DWIDTH 12 0
BBX 12 18 0 -6
BITMAP
000001
01BF92
0BFAFE
2F802E
7F000D
BE0005
BD0000
BD0000
7E0004
3F0009
1FD01D
07FAFA
00BF91
003400
007E00
000700
00BE00
001400
ENDCHAR
STARTCHAR Egrave
ENCODING 200
SWIDTH 781 0
DWIDTH 13 0
BBX 13 17 -1 -1
BITMAP
001E0000
001F0000
000B4000
00020000
00005540
6BFFFF80
07F90380
02F41280
02F45080
01F4D040
01FAD000
01FFD040
01F5D140
01F45240
01F00340
1BFFFF40
55555500
ENDCHAR
STARTCHAR Eacute
ENCODING 201
SWIDTH 781 0
DWIDTH 13 0
BBX 13 17 -1 -1
BITMAP
00010000
0003D000
0007C000
00074000
00015540
6BFFFF80
07F90380
02F41280
02F45080
01F4D040
01FAD000
01FFD040
01F5D140
01F45240
01F00340
1BFFFF40
55555500
ENDCHAR
STARTCHAR Ecircumflex
ENCODING 202
SWIDTH 781 0
DWIDTH 13 0
BBX 13 18 -1 -1
BITMAP
00050000
001F4000
003FC000
00A0A000
00000000
00005540
6BFFFF80
07F90380
02F41280
02F45080
01F4D040
01FAD000
01FFD040
01F5D140
01F45240
01F00340
1BFFFF40
55555500
ENDCHAR
STARTCHAR Edieresis
ENCODING 203
SWIDTH 781 0
DWIDTH 13 0
BBX 13 15 -1 -1
BITMAP
0038E000
00289000
00005540
6BFFFF80
07F90380
02F41280
02F45080
01F4D040
01FAD000
01FFD040
01F5D140
01F45240
01F00340
1BFFFF40
55555500
ENDCHAR
STARTCHAR Igrave
ENCODING 204
SWIDTH 445 0
DWIDTH 7 0
BBX 9 18 -1 -2
BITMAP
02C000
03D000
01E000
009000
000000
6FFF40
07F400
02F400
02F000
02F000
02F000
01F000
01F000
01F000
01F000
01F000
07F900
155540
ENDCHAR
STARTCHAR Iacute
ENCODING 205
SWIDTH 445 0
DWIDTH 7 0
BBX 9 18 -1 -2
BITMAP
001000
007800
00B400
00E000
000000
6FFF40
07F400
02F400
02F000
02F000
02F000
01F000
01F000
01F000
01F000
01F000
07F900
155540
ENDCHAR
STARTCHAR Icircumflex
ENCODING 206
SWIDTH 445 0
DWIDTH 7 0
BBX 9 18 -1 -2
BITMAP
009000
01F000
07F800
0A1900
000000
6FFF40
07F400
02F400
02F000
02F000
02F000
01F000
01F000
01F000
01F000
01F000
07F900
155540
ENDCHAR
STARTCHAR Idieresis
ENCODING 207
SWIDTH 445 0
DWIDTH 7 0
BBX 9 16 -1 -2
BITMAP
0B6C00
061800
000000
6FFF40
07F400
02F400
02F000
02F000
02F000
01F000
01F000
01F000
01F000
01F000
07F900
155540
ENDCHAR
STARTCHAR Eth
ENCODING 208
SWIDTH 1000 0
DWIDTH 16 0
BBX 16 12 0 -1
BITMAP
6AAAA900
06FFFFD0
00BE02F4
007E00FC
007E00BD
1FFFE07D
1FFFA07D
003D00BC
003D00F8
003D57F0
02FFFF80
05554000
ENDCHAR
STARTCHAR Ntilde
ENCODING 209
SWIDTH 840 0
DWIDTH 13 0
BBX 16 16 -1 -1
BITMAP
001E6400
002FF400
00105000
5551AAA9
1FF82FE4
02FE0380
02FF4280
02EFD280
02CBF280
02C3FA80
02C0FF80
02C07F80
02C01F80
07E40780
6FFF9280
00000040
ENDCHAR
STARTCHAR Ograve
ENCODING 210
SWIDTH 808 0
DWIDTH 13 0
BBX 13 16 0 -1
BITMAP
002D0000
002E0000
000F0000
00050000
00000000
01AE9000
0BFAF800
3F807E00
7E002F40
BD001F80
BD001F80
7E002F40
3F007F00
1FD6FD00
02FFE000
00040000
ENDCHAR
STARTCHAR Oacute
ENCODING 211
SWIDTH 808 0
DWIDTH 13 0
BBX 13 16 0 -1
BITMAP
00050000
000B4000
000F0000
001D0000
00000000
01AE9000
0BFAF800
3F807E00
7E002F40
BD001F80
BD001F80
7E002F40
3F007F00
1FD6FD00
02FFE000
00040000
ENDCHAR
STARTCHAR Ocircumflex
ENCODING 212
SWIDTH 808 0
DWIDTH 13 0
BBX 13 16 0 -1
BITMAP
00080000
002E0000
00BF8000
00D1C000
00000000
01AE9000
0BFAF800
3F807E00
7E002F40
BD001F80
BD001F80
7E002F40
3F007F00
1FD6FD00
02FFE000
00040000
ENDCHAR
STARTCHAR Otilde
ENCODING 213
SWIDTH 808 0
DWIDTH 13 0
BBX 13 15 0 -1
BITMAP
00799000
00BFD000
00414000
00000000
01AE9000
0BFAF800
3F807E00
7E002F40
BD001F80
BD001F80
7E002F40
3F007F00
1FD6FD00
02FFE000
00040000
ENDCHAR
STARTCHAR Odieresis
ENCODING 214
SWIDTH 808 0
DWIDTH 13 0
BBX 13 14 0 -1
BITMAP
00B38000
00A28000
00000000
01AE9000
0BFAF800
3F807E00
7E002F40
BD001F80
BD001F80
7E002F40
3F007F00
1FD6FD00
02FFE000
00040000
ENDCHAR
STARTCHAR multiply
ENCODING 215
SWIDTH 556 0
DWIDTH 9 0
BBX 9 9 0 1
BITMAP
140400
7D1F00
7F7F40
1FFD00
07F400
0FFC00
3F7E00
7D1F40
200500
ENDCHAR
STARTCHAR Oslash
ENCODING 216
SWIDTH 808 0
DWIDTH 13 0
BBX 13 14 0 -2
BITMAP
00001000
0000B800
01AEF800
0BFBF800
3F87FE00
7E0BEF40
BD1F5F80
BD2E1F80
7E7C2F40
3FF47F00
1FF6FD00
07FFE000
0B440000
06000000
ENDCHAR
STARTCHAR Ugrave
ENCODING 217
SWIDTH 725 0
DWIDTH 12 0
BBX 14 16 -1 -1
BITMAP
001E0000
001F0000
000B4000
00050000
40005550
2FF42F40
0BD00E00
0BD00E00
0BD00E00
0BD00E00
0BD00E00
0BD00D00
0BE01D00
03F57C00
01FFE000
00154000
ENDCHAR
STARTCHAR Uacute
ENCODING 218
SWIDTH 725 0
DWIDTH 12 0
BBX 14 17 -1 -1
BITMAP
00010000
000B8000
000F4000
000E0000
00000000
40005550
2FF42F40
0BD00E00
0BD00E00
0BD00E00
0BD00E00
0BD00E00
0BD00D00
0BE01D00
03F57C00
01FFE000
00154000
ENDCHAR
STARTCHAR Ucircumflex
ENCODING 219
SWIDTH 725 0
DWIDTH 12 0
BBX 14 17 -1 -1
BITMAP
00050000
001F4000
003FC000
00A0A000
00000000
40005550
2FF42F40
0BD00E00
0BD00E00
0BD00E00
0BD00E00
0BD00E00
0BD00D00
0BE01D00
03F57C00
01FFE000
00154000
ENDCHAR
STARTCHAR Udieresis
ENCODING 220
SWIDTH 725 0
DWIDTH 12 0
BBX 14 15 -1 -1
BITMAP
0038E000
00289000
00000000
40005550
2FF42F40
0BD00E00
0BD00E00
0BD00E00
0BD00E00
0BD00E00
0BD00D00
0BE01D00
03F57C00
01FFE000
00154000
ENDCHAR
STARTCHAR Yacute
ENCODING 221
SWIDTH 848 0
DWIDTH 14 0
BBX 16 17 -2 -1
BITMAP
00001400
00002E00
00003C00
00003800
00000000
01550000
6FFD0555
01FD02F9
003F01D0
001F8740
0007ED00
0001F400
0000F400
0000F400
0001F400
0001F800
001BFF90
ENDCHAR
STARTCHAR Thorn
ENCODING 222
SWIDTH 745 0
DWIDTH 12 0
BBX 13 12 -1 -1
BITMAP
54000000
2FFE4000
03F40000
02FFE900
02F56F40
02F007C0
02F00B80
02FAFE00
02FA5000
02F40000
1BFE0000
55554000
ENDCHAR
STARTCHAR germandbls
ENCODING 223
SWIDTH 986 0
DWIDTH 16 0
BBX 17 22 -1 -7
BITMAP
000AA00000
007EBD0000
00B41F0000
01F00B4000
01E0078000
02E00B8000
02E00F4000
2FF02E0000
16F03D0000
01F07C0000
00F4BC0000
00F47F4000
00F81FF900
00B816FF40
00B8606FC0
00BC7D0B80
007C7FFF40
647C515400
B878000000
B8B4000000
2FE0000000
0500000000
ENDCHAR
STARTCHAR agrave
ENCODING 224
SWIDTH 572 0
DWIDTH 9 0
BBX 10 15 0 -1
BITMAP
007800
007C00
002D00
001400
000000
06E400
2E6E00
7D0F40
3C0F40
1AAF40
7D6F40
BC1F00
7EBF00
06AF90
001550
ENDCHAR
STARTCHAR aacute
ENCODING 225
SWIDTH 572 0
DWIDTH 9 0
BBX 10 15 0 -1
BITMAP
001000
003D00
007800
007400
000000
06E400
2E6E00
7D0F40
3C0F40
1AAF40
7D6F40
BC1F00
7EBF00
06AF90
001550
ENDCHAR
STARTCHAR acircumflex
ENCODING 226
SWIDTH 572 0
DWIDTH 9 0
BBX 10 15 0 -1
BITMAP
006000
00F400
02FD00
064A00
000000
06E400
2E6E00
7D0F40
3C0F40
1AAF40
7D6F40
BC1F00
7EBF00
06AF90
001550
ENDCHAR
STARTCHAR atilde
ENCODING 227
SWIDTH 572 0
DWIDTH 9 0
BBX 10 14 0 -1
BITMAP
02E600
03FE00
011500
000000
06E400
2E6E00
7D0F40
3C0F40
1AAF40
7D6F40
BC1F00
7EBF00
06AF90
001550
ENDCHAR
STARTCHAR adieresis
ENCODING 228
SWIDTH 572 0
DWIDTH 9 0
BBX 10 13 0 -1
BITMAP
076D00
065800
000000
06E400
2E6E00
7D0F40
3C0F40
1AAF40
7D6F40
BC1F00
7EBF00
06AF90
001550
ENDCHAR
STARTCHAR aring
ENCODING 229
SWIDTH 572 0
DWIDTH 9 0
BBX 10 13 0 -1
BITMAP
00B400
01DC00
00E800
06F800
2E6E00
7D0F40
3C0F40
1AAF40
7D6F40
BC1F00
7EBF00
06AF90
001550
ENDCHAR
STARTCHAR ae
ENCODING 230
SWIDTH 1022 0
DWIDTH 16 0
BBX 16 10 0 -1
BITMAP
06E40140
3D7D2FF4
BC1FF97D
781FF01F
1AAFFFFF
BD6FF555
F82FF905
BEBE2FF4
16BF8140
00154000
ENDCHAR
STARTCHAR ccedilla
ENCODING 231
SWIDTH 589 0
DWIDTH 9 0
BBX 10 14 0 -6
BITMAP
02B900
1FAF80
3E0BC0
7D0780
7D0000
7D0050
3F01C0
1FEF40
06F900
00D000
02F400
002800
02F800
005000
ENDCHAR
STARTCHAR egrave
ENCODING 232
SWIDTH 593 0
DWIDTH 10 0
BBX 10 13 0 -1
BITMAP
00B400
00B800
003C00
001400
005000
0BFE00
2F5F80
7D07C0
7EABD0
7EAA90
3D0040
1FAA40
06F900
ENDCHAR
STARTCHAR eacute
ENCODING 233
SWIDTH 593 0
DWIDTH 10 0
BBX 10 14 0 -1
BITMAP
001000
003C00
007800
00B000
000000
005000
0BFE00
2F5F80
7D07C0
7EABD0
7EAA90
3D0040
1FAA40
06F900
ENDCHAR
STARTCHAR ecircumflex
ENCODING 234
SWIDTH 593 0
DWIDTH 10 0
BBX 10 14 0 -1
BITMAP
006000
00F400
02FD00
064A00
000000
005000
0BFE00
2F5F80
7D07C0
7EABD0
7EAA90
3D0040
1FAA40
06F900
ENDCHAR
STARTCHAR edieresis
ENCODING 235
SWIDTH 593 0
DWIDTH 10 0
BBX 10 11 0 -1
BITMAP
038E00
028900
005000
0BFE00
2F5F80
7D07C0
7EABD0
7EAA90
3D0040
1FAA40
06F900
ENDCHAR
STARTCHAR igrave
ENCODING 236
SWIDTH 393 0
DWIDTH 6 0
BBX 7 13 0 0
BITMAP
0B00
0F40
0780
0240
5540
6FD0
07C0
07C0
07C0
07C0
0780
0BC0
6FF4
ENDCHAR
STARTCHAR iacute
ENCODING 237
SWIDTH 393 0
DWIDTH 6 0
BBX 7 14 0 0
BITMAP
0140
02E0
03C0
0380
0000
5540
6FD0
07C0
07C0
07C0
07C0
0780
0BC0
6FF4
ENDCHAR
STARTCHAR icircumflex
ENCODING 238
SWIDTH 393 0
DWIDTH 6 0
BBX 7 14 0 0
BITMAP
0200
0BC0
1FE0
3474
0000
5540
6FD0
07C0
07C0
07C0
07C0
0780
0BC0
6FF4
ENDCHAR
STARTCHAR idieresis
ENCODING 239
SWIDTH 393 0
DWIDTH 6 0
BBX 7 12 0 0
BITMAP
1DB4
1960
0000
5540
6FD0
07C0
07C0
07C0
07C0
0780
0BC0
6FF4
ENDCHAR
STARTCHAR eth
ENCODING 240
SWIDTH 672 0
DWIDTH 11 0
BBX 11 15 0 -2
BITMAP
050050
0192E0
007F80
01BF00
07EB80
0243D0
0012F0
1BFFF4
7E46F8
F800F8
F400F8
F800F4
BD02F0
1FEF80
016500
ENDCHAR
STARTCHAR ntilde
ENCODING 241
SWIDTH 643 0
DWIDTH 10 0
BBX 12 11 -1 1
BITMAP
007990
00BFD0
004140
059140
BFFFF4
07F5F8
03D07C
03D07C
02C078
1BE478
0006FE
ENDCHAR
STARTCHAR ograve
ENCODING 242
SWIDTH 705 0
DWIDTH 11 0
BBX 11 12 0 0
BITMAP
007800
007C00
002D00
000800
01A900
1FEBE0
7E01F8
BC00BC
B800BC
BC00BC
2F56F4
06FF80
ENDCHAR
STARTCHAR oacute
ENCODING 243
SWIDTH 705 0
DWIDTH 11 0
BBX 11 13 0 0
BITMAP
001400
002D00
003C00
007800
000000
01A900
1FEBE0
7E01F8
BC00BC
B800BC
BC00BC
2F56F4
06FF80
ENDCHAR
STARTCHAR ocircumflex
ENCODING 244
SWIDTH 705 0
DWIDTH 11 0
BBX 11 13 0 0
BITMAP
001400
007D00
01FF00
028240
000000
01A900
1FEBE0
7E01F8
BC00BC
B800BC
BC00BC
2F56F4
06FF80
ENDCHAR
STARTCHAR otilde
ENCODING 245
SWIDTH 705 0
DWIDTH 11 0
BBX 11 12 0 0
BITMAP
01FA40
01FF40
010500
000000
01A900
1FEBE0
7E01F8
BC00BC
B800BC
BC00BC
2F56F4
06FF80
ENDCHAR
STARTCHAR odieresis
ENCODING 246
SWIDTH 705 0
DWIDTH 11 0
BBX 11 11 0 0
BITMAP
01D740
019600
000000
01A900
1FEBE0
7E01F8
BC00BC
B800BC
BC00BC
2F56F4
06FF80
ENDCHAR
STARTCHAR divide
ENCODING 247
SWIDTH 504 0
DWIDTH 8 0
BBX 8 9 0 0
BITMAP
03E0
07F0
0190
AA95
BFFF
AA95
0140
07E0
07D0
ENDCHAR
STARTCHAR oslash
ENCODING 248
SWIDTH 705 0
DWIDTH 11 0
BBX 11 12 0 -2
BITMAP
000040
0002E0
01ABD0
1FEFE0
7E1FF8
BC3DBC
B8B8BC
BDF4BC
2FE6F4
0BFF80
0B4000
0A0000
ENDCHAR
STARTCHAR ugrave
ENCODING 249
SWIDTH 614 0
DWIDTH 10 0
BBX 12 14 -1 -1
BITMAP
007400
007800
003C00
001400
000000
BF8AA4
1F42F4
0F40F4
0F40F0
0F40F0
0F40F0
0BD7E0
02FEF9
001094
ENDCHAR
STARTCHAR uacute
ENCODING 250
SWIDTH 614 0
DWIDTH 10 0
BBX 12 14 -1 -1
BITMAP
000400
001F00
002D00
002C00
000000
BF8AA4
1F42F4
0F40F4
0F40F0
0F40F0
0F40F0
0BD7E0
02FEF9
001094
ENDCHAR
STARTCHAR ucircumflex
ENCODING 251
SWIDTH 614 0
DWIDTH 10 0
BBX 12 14 -1 -1
BITMAP
001400
007D00
00FF00
018280
000000
BF8AA4
1F42F4
0F40F4
0F40F0
0F40F0
0F40F0
0BD7E0
02FEF9
001094
ENDCHAR
STARTCHAR udieresis
ENCODING 252
SWIDTH 614 0
DWIDTH 10 0
BBX 12 12 -1 -1
BITMAP
01DB40
019600
000000
BF8AA4
1F42F4
0F40F4
0F40F0
0F40F0
0F40F0
0BD7E0
02FEF9
001094
ENDCHAR
STARTCHAR yacute
ENCODING 253
SWIDTH 655 0
DWIDTH 10 0
BBX 11 21 -1 -7
BITMAP
000400
001F00
002D00
002C00
000000
500000
2E4AA4
0FD1FC
0FC0BC
1F80BC
1F40BC
1F80B8
0BFFF8
01A9F8
0000F8
0000F8
0400F8
1F01F4
1F02F0
0F57D0
02FF40
ENDCHAR
STARTCHAR thorn
ENCODING 254
SWIDTH 734 0
DWIDTH 12 0
BBX 13 18 -1 -7
BITMAP
7FF00000
07F00000
02F00000
02F00000
02F00000
02F00000
02FFF900
02F46F40
02F00B80
02F00BC0
02F00B80
01F96F40
01FFF900
01F00000
01F00000
01F00000
07FD0000
2A554000
ENDCHAR
STARTCHAR ydieresis
ENCODING 255
SWIDTH 655 0
DWIDTH 10 0
BBX 11 19 -1 -7
BITMAP
01DB40
019600
000000
500000
2E4AA4
0FD1FC
0FC0BC
1F80BC
1F40BC
1F80B8
0BFFF8
01A9F8
0000F8
0000F8
0400F8
1F01F4
1F02F0
0F57D0
02FF40
ENDCHAR
STARTCHAR dotlessi
ENCODING 305
SWIDTH 393 0
DWIDTH 6 0
BBX 7 9 0 0
BITMAP
5540
6FD0
07C0
07C0
07C0
07C0
0780
0BC0
6FF4
ENDCHAR
STARTCHAR Lslash
ENCODING 321
SWIDTH 713 0
DWIDTH 11 0
BBX 13 13 -1 0
BITMAP
6AAA9000
1BFE0000
02F40000
01F40000
01FB4000
01FF8000
0BFD0040
2FF40140
19F40240
01F40740
00F40B40
06FFFF40
2AAA9500
ENDCHAR
STARTCHAR lslash
ENCODING 322
SWIDTH 365 0
DWIDTH 6 0
BBX 8 16 -1 -2
BITMAP
AA90
1BE0
07D0
07D0
07D0
07FE
07FD
7FD0
7FD0
13D0
03D0
03C0
03C0
03D0
1FF8
1000
ENDCHAR
STARTCHAR OE
ENCODING 338
SWIDTH 1195 0
DWIDTH 19 0
BBX 19 13 0 -1
BITMAP
0000001554
0006BFFFF4
00007F9074
06FE6F4024
2F5BEF4514
7D02FF4D04
B801FFAD00
B800FFFD10
BC01FF5D20
3E07EF4530
0BFF5F4070
0055BFFFF0
0005555550
ENDCHAR
STARTCHAR oe
ENCODING 339
SWIDTH 1087 0
DWIDTH 17 0
BBX 18 9 0 -1
BITMAP
0050000000
1BFF4BF900
7E07FEAF40
B802FC0BC0
B401F95BC0
B802FFAA90
3E07F80000
0BFE7F9A40
00000BF800
ENDCHAR
STARTCHAR Scaron
ENCODING 352
SWIDTH 661 0
DWIDTH 11 0
BBX 11 17 0 -1
BITMAP
020600
02EE00
00F800
007000
000000
015414
2FFFB0
BD06F0
BC0070
BF9410
3FFF40
06FFE0
101BF4
2002F4
3D02F0
3BFF80
505400
ENDCHAR
STARTCHAR scaron
ENCODING 353
SWIDTH 533 0
DWIDTH 9 0
BBX 9 15 0 0
BITMAP
090800
0BB800
02F000
00D000
000000
014100
2FFA00
781F00
BD0700
7F9100
1FFD00
51BF40
741F40
7E5F40
9AF900
ENDCHAR
STARTCHAR Ydieresis
ENCODING 376
SWIDTH 848 0
DWIDTH 14 0
BBX 16 14 -2 -1
BITMAP
00039E00
00024900
01550000
6FFD0555
01FD02F9
003F01D0
001F8740
0007ED00
0001F400
0000F400
0000F400
0001F400
0001F800
001BFF90
ENDCHAR
STARTCHAR Zcaron
ENCODING 381
SWIDTH 685 0
DWIDTH 11 0
BBX 11 15 0 0
BITMAP
024240
01EF00
00BD00
002800
000000
6AAAA8
7FEFF4
740BE0
302FC0
207F40
01FD08
07F818
0FE038
2FEAB8
6AAAA4
ENDCHAR
STARTCHAR zcaron
ENCODING 382
SWIDTH 549 0
DWIDTH 9 0
BBX 9 15 0 -1
BITMAP
090900
07BC00
02F400
009000
000000
155540
BFFF80
743F00
70BD00
21F800
07E140
0FC240
2F9740
6FFF80
000100
ENDCHAR
STARTCHAR circumflex
ENCODING 710
SWIDTH 714 0
DWIDTH 11 0
BBX 6 4 3 11
BITMAP
0200
0F80
2FD0
7470
ENDCHAR
STARTCHAR caron
ENCODING 711
SWIDTH 714 0
DWIDTH 11 0
BBX 6 4 3 11
BITMAP
6060
2EE0
0F80
0700
ENDCHAR
STARTCHAR breve
ENCODING 728
SWIDTH 715 0
DWIDTH 11 0
BBX 5 3 4 12
BITMAP
8180
BB40
3E00
ENDCHAR
STARTCHAR dotaccent
ENCODING 729
SWIDTH 708 0
DWIDTH 11 0
BBX 3 2 4 13
BITMAP
78
24
ENDCHAR
STARTCHAR ring
ENCODING 730
SWIDTH 704 0
DWIDTH 11 0
BBX 4 4 4 11
BITMAP
29
67
7A
14
ENDCHAR
STARTCHAR ogonek
ENCODING 731
SWIDTH 988 0
DWIDTH 16 0
BBX 6 4 5 -2
BITMAP
A000
F000
BAA0
6E80
ENDCHAR
STARTCHAR tilde
ENCODING 732
SWIDTH 707 0
DWIDTH 11 0
BBX 5 3 4 11
BITMAP
B980
FF80
4500
ENDCHAR
STARTCHAR hungarumlaut
ENCODING 733
SWIDTH 671 0
DWIDTH 11 0
BBX 6 4 3 12
BITMAP
1140
3EE0
7BC0
B780
ENDCHAR
STARTCHAR endash
ENCODING 8211
SWIDTH 576 0
DWIDTH 9 0
BBX 8 3 1 4
BITMAP
FFFD
FFFD
0014
ENDCHAR
STARTCHAR emdash
ENCODING 8212
SWIDTH 993 0
DWIDTH 16 0
BBX 14 3 1 4
BITMAP
FFFFFFF0
FFFFFFF0
55555550
ENDCHAR
STARTCHAR quoteleft
ENCODING 8216
SWIDTH 261 0
DWIDTH 4 0
BBX 4 5 0 7
BITMAP
04
1F
3E
BD
6C
ENDCHAR
STARTCHAR quoteright
ENCODING 8217
SWIDTH 301 0
DWIDTH 5 0
BBX 4 5 0 7
BITMAP
04
2F
3E
7D
78
ENDCHAR
STARTCHAR quotesinglbase
ENCODING 8218
SWIDTH 332 0
DWIDTH 5 0
BBX 4 5 0 -1
BITMAP
04
2F
3E
7D
78
ENDCHAR
STARTCHAR quotedblleft
ENCODING 8220
SWIDTH 477 0
DWIDTH 8 0
BBX 8 5 0 7
BITMAP
0414
1F3D
3EBC
BDF8
6CB4
ENDCHAR
STARTCHAR quotedblright
ENCODING 8221
SWIDTH 477 0
DWIDTH 8 0
BBX 8 5 0 7
BITMAP
1010
3E7D
7DBC
BCF4
75B0
ENDCHAR
STARTCHAR quotedblbase
ENCODING 8222
SWIDTH 477 0
DWIDTH 8 0
BBX 8 5 0 -1
BITMAP
1010
3E7D
7DBC
BCF4
75B0
ENDCHAR
STARTCHAR dagger
ENCODING 8224
SWIDTH 487 0
DWIDTH 8 0
BBX 8 19 0 -5
BITMAP
0140
07D0
07D0
07D0
6BE4
BFFD
BFF9
03D0
03D0
03D0
03C0
03C0
03C0
03C0
03C0
03C0
03C0
03C0
0280
ENDCHAR
STARTCHAR daggerdbl
ENCODING 8225
SWIDTH 497 0
DWIDTH 8 0
BBX 8 19 0 -5
BITMAP
0140
07D0
07D0
07D0
6BE4
BFFD
BFF9
03D0
57E9
BFFD
6BFD
03C0
03C0
03C0
03C0
03C0
03C0
03C0
0280
ENDCHAR
STARTCHAR bullet
ENCODING 8226
SWIDTH 275 0
DWIDTH 4 0
BBX 5 5 0 4
BITMAP
0400
7E00
FF40
FF40
7E00
ENDCHAR
STARTCHAR ellipsis
ENCODING 8230
SWIDTH 787 0
DWIDTH 13 0
BBX 13 4 0 -2
BITMAP
10040400
BD7E2F40
BD7E2F40
14140500
ENDCHAR
STARTCHAR perthousand
ENCODING 8240
SWIDTH 888 0
DWIDTH 14 0
BBX 15 14 0 -1
BITMAP
00010000
2907C000
BB8F4000
E39F0000
BB6E0000
193C0000
00780000
00F40000
01F00000
02D7F7F4
03CE7F38
078E7F38
0F07E7F4
05000000
ENDCHAR
STARTCHAR guilsinglleft
ENCODING 8249
SWIDTH 234 0
DWIDTH 4 0
BBX 4 8 0 0
BITMAP
05
0D
2C
B8
B4
78
1D
09
ENDCHAR
STARTCHAR guilsinglright
ENCODING 8250
SWIDTH 223 0
DWIDTH 4 0
BBX 4 8 0 0
BITMAP
40
A0
78
2D
2D
38
B4
90
ENDCHAR
STARTCHAR fraction
ENCODING 8260
SWIDTH 600 0
DWIDTH 10 0
BBX 11 15 -1 -2
BITMAP
0000B4
0001FC
0003F4
000BE0
000FC0
002F40
007E00
00FD00
01F800
03F000
0BD000
1F8000
2F0000
7D0000
180000
ENDCHAR
STARTCHAR Euro
ENCODING 8364
SWIDTH 590 0
DWIDTH 9 0
BBX 11 11 -1 0
BITMAP
001500
00BFD0
03D0F4
0780F4
7FE950
6F9400
6FEE04
1BEA14
03F5B0
00BF80
000500
ENDCHAR
STARTCHAR trademark
ENCODING 8482
SWIDTH 624 0
DWIDTH 10 0
BBX 10 7 0 5
BITMAP
100000
300000
B90000
71A980
60DAA0
608560
795950
ENDCHAR
STARTCHAR minus
ENCODING 8722
SWIDTH 549 0
DWIDTH 9 0
BBX 9 3 0 4
BITMAP
BEAA40
BFFF80
AAAA40
ENDCHAR
STARTCHAR fi
ENCODING 64257
SWIDTH 757 0
DWIDTH 12 0
BBX 14 23 -1 -7
BITMAP
00054000
003FF400
00F47D00
01E02E00
02E03F00
02E03E00
02E00400
02E00000
2FFFFF00
16F57F00
01F42F00
01F42E00
00F42E00
00F81E00
00B82E00
00B9FFD0
00BC0000
007C0000
647C0000
B8780000
B4B40000
2FE00000
05400000
ENDCHAR
STARTCHAR fl
ENCODING 64258
SWIDTH 776 0
DWIDTH 12 0
BBX 14 23 -1 -7
BITMAP
00054000
003FF400
00F47D00
01E02E00
02E02F00
02E02F00
02E02F00
02E01F00
2FFF9F00
16F55F00
01F41F00
01F41F00
00F41F00
00F81F00
00B81F00
00B81F00
00BCBFD0
007C4000
647C0000
B8780000
B4B40000
2FE00000
05400000
ENDCHAR
STARTCHAR .notdef
ENCODING -1
SWIDTH 320 0
DWIDTH 5 0
BBX 1 1 0 0
BITMAP
00
ENDCHAR
ENDFONT
